<svg width="308" height="131" viewBox="0 0 308 131" fill="none" xmlns="http://www.w3.org/2000/svg">
<g clip-path="url(#clip0_1138_7649)">
<path fill-rule="evenodd" clip-rule="evenodd" d="M30.465 17.4284C27.7892 15.7798 24.6233 14.9606 20.9466 14.9606C18.4445 14.9606 16.1466 15.5136 14.0325 16.6195C11.9286 17.7254 10.3048 19.1897 9.18138 21.0022V0H2.06301V52.6232H9.1916V47.0936C10.315 48.9573 11.9389 50.4524 14.0427 51.548C16.1466 52.654 18.424 53.2069 20.8751 53.2069C24.6028 53.2069 27.7892 52.398 30.4344 50.7698C33.0795 49.1519 35.1017 46.8888 36.5008 43.9909C37.9 41.093 38.5945 37.7957 38.5945 34.1094C38.5945 30.423 37.9102 27.0745 36.5315 24.1971C35.1629 21.3196 33.1408 19.0668 30.465 17.4182V17.4284ZM31.3842 45.3221H9.1916V22.999H31.3842V45.3221ZM52.7802 15.5545H45.6516V52.6232H52.7802V15.5545ZM66.0876 3.90141H73.2161H73.2264V15.5443H84.1031V21.7394H73.2264V46.1515H84.1031V52.6334H78.2919C74.5642 52.6334 71.6025 51.548 69.3965 49.3874C67.1905 47.2267 66.0876 44.2469 66.0876 40.4684V21.7497H58.5198V15.5545H66.0876V3.90141ZM62.4109 84.49C64.913 84.49 67.0986 85.1761 68.988 86.5585C70.8774 87.9307 71.9906 89.6817 72.3276 91.7911H79.4562C79.1089 89.0366 78.1285 86.6404 76.5149 84.6027C74.9012 82.5649 72.8382 80.988 70.3361 79.8821C67.8339 78.7761 65.1377 78.2232 62.2475 78.2232C58.4789 78.2232 55.2006 79.0936 52.4329 80.8446C49.6652 82.5854 47.5409 84.9099 46.0703 87.8078C44.5996 90.7057 43.8643 93.9006 43.8643 97.3924C43.8643 100.884 44.5996 104.079 46.0703 106.977C47.5409 109.875 49.655 112.199 52.4329 113.94C55.2108 115.681 58.4687 116.562 62.2475 116.562C66.9046 116.562 70.7854 115.353 73.9004 112.947C77.0153 110.541 78.8638 107.366 79.446 103.434H72.3889C71.7965 105.543 70.6118 107.213 68.8246 108.441C67.0373 109.67 64.8926 110.285 62.3905 110.285C58.867 110.285 56.13 109.066 54.1895 106.639C52.2491 104.202 51.2891 101.12 51.2891 97.3924C51.2891 93.6651 52.2491 90.5111 54.1589 88.1048C56.0687 85.6984 58.816 84.49 62.3905 84.49H62.4109ZM24.5109 79.8513C26.6454 80.8856 28.2999 82.2168 29.4744 83.8347V83.8244V78.8888H36.603V115.957H29.4744V110.95C28.5858 112.568 27.0641 113.909 24.8786 114.964C22.693 116.019 20.3338 116.551 17.7806 116.551C14.0631 116.551 10.8665 115.732 8.19073 114.084C5.52517 112.435 3.4928 110.182 2.09364 107.305C0.694476 104.427 0 101.202 0 97.4641C0 93.7265 0.704689 90.4292 2.09364 87.5518C3.48259 84.6743 5.51496 82.4215 8.19073 80.7729C10.8563 79.1243 14.0325 78.3051 17.7091 78.3051C20.1092 78.3051 22.3764 78.8171 24.5109 79.8513ZM7.20008 108.677H29.5459V86.3435H7.20008V108.677ZM300.647 78.8171L290.873 106.68L281.171 78.8171H273.818L287.564 116.336L282.56 131H289.402L294.989 114.637L308 78.8171H300.647ZM157.513 84.3302C156.39 82.5152 154.77 81.0666 152.672 79.964C150.569 78.8581 148.26 78.3051 145.758 78.3051C142.082 78.3051 138.926 79.1243 136.281 80.7729C133.636 82.4216 131.613 84.6949 130.214 87.5928C128.815 90.4907 128.121 93.788 128.121 97.4744C128.121 101.161 128.815 104.438 130.214 107.315C131.613 110.192 133.646 112.445 136.311 114.094C138.987 115.742 142.153 116.562 145.83 116.562C148.281 116.562 150.558 116.009 152.662 114.903C154.766 113.797 156.39 112.312 157.513 110.448V115.978H164.642V63.3445H157.513V84.3302ZM135.321 108.667H157.524V86.3333H135.321V108.667ZM256.752 78.3051H256.17C253.77 78.3563 251.574 78.8683 249.593 79.8513C247.611 80.8344 245.977 82.1348 244.701 83.7527C243.424 82.1348 241.79 80.8241 239.778 79.8513C237.766 78.8683 235.56 78.3563 233.16 78.3051H232.2C230.045 78.3563 228.064 78.8683 226.246 79.8513C224.428 80.8344 222.968 82.1348 221.834 83.7527V78.8888H214.705V115.957H221.834V86.2513H238.665V115.957H245.722V86.2513H262.624V115.957H269.753V92.3748C269.753 88.1047 268.578 84.6846 266.229 82.1348C263.88 79.5748 260.714 78.3051 256.752 78.3051ZM197.149 108.738C198.865 107.612 199.988 105.984 200.53 103.874L200.509 103.864H207.638C206.954 107.704 205.064 110.766 201.98 113.08C198.896 115.384 195.066 116.541 190.511 116.541C186.783 116.541 183.515 115.661 180.696 113.889C177.878 112.117 175.712 109.762 174.191 106.813C172.669 103.864 171.913 100.649 171.913 97.1569C171.913 93.6651 172.628 90.4907 174.048 87.6132C175.478 84.746 177.53 82.4625 180.227 80.7627C182.923 79.0731 186.119 78.2232 189.786 78.2232C193.452 78.2232 196.618 79.0219 199.263 80.6193C201.909 82.2168 203.92 84.3467 205.289 87.0295C206.668 89.7022 207.352 92.6411 207.352 95.8359C207.352 96.819 207.311 97.761 207.209 98.6417H178.909C179.205 102.185 180.41 105.031 182.514 107.192C184.628 109.353 187.294 110.438 190.531 110.438C193.228 110.438 195.434 109.865 197.149 108.738ZM189.806 83.978C186.906 83.978 184.547 84.7768 182.708 86.3742H182.719C180.88 87.9716 179.696 90.3166 179.154 93.4091H200.172C199.927 90.5623 198.906 88.2788 197.088 86.5585C195.27 84.8382 192.839 83.978 189.806 83.978ZM113.639 83.8347C112.464 82.2168 110.81 80.8856 108.675 79.8513C106.541 78.8171 104.274 78.3051 101.873 78.3051C98.1968 78.3051 95.0206 79.1243 92.3551 80.7729C89.6793 82.4215 87.6469 84.6743 86.258 87.5518C84.869 90.4292 84.1643 93.7265 84.1643 97.4641C84.1643 101.202 84.8588 104.427 86.258 107.305C87.6571 110.182 89.6895 112.435 92.3551 114.084C95.0308 115.732 98.2275 116.551 101.945 116.551C104.498 116.551 106.857 116.019 109.043 114.964C111.228 113.909 112.75 112.568 113.639 110.95V115.957H120.767V78.8888H113.639V83.8244V83.8347ZM113.71 108.677H91.3644V86.3435H113.71V108.677ZM45.6413 0.0716828H52.7597V7.20894H45.6413V0.0716828Z" fill="#040404"/>
</g>
<defs>
<clipPath id="clip0_1138_7649">
<rect width="308" height="131" fill="white"/>
</clipPath>
</defs>
</svg>
